<svg xmlns="http://www.w3.org/2000/svg" viewBox="0 0 24 24" stroke-width="1.5" stroke="currentColor" aria-hidden="true" data-slot="icon" fill="none">
  <path stroke-linecap="round" stroke-linejoin="round" d="M5.25 18a.75.75 0 1 1 1.5 0 .75.75 0 0 1-1.5 0zm6 0a.75.75 0 1 1 1.5 0 .75.75 0 0 1-1.5 0zm6 0a.75.75 0 1 1 1.5 0 .75.75 0 0 1-1.5 0zm-12-6a.75.75 0 1 1 1.5 0 .75.75 0 0 1-1.5 0zm6 0a.75.75 0 1 1 1.5 0 .75.75 0 0 1-1.5 0zm6 0a.75.75 0 1 1 1.5 0 .75.75 0 0 1-1.5 0zm-12-6a.75.75 0 1 1 1.5 0 .75.75 0 0 1-1.5 0Zm6 0a.75.75 0 1 1 1.5 0 .75.75 0 0 1-1.5 0zm6 0a.75.75 0 1 1 1.5 0 .75.75 0 0 1-1.5 0z"/>
</svg>
