<svg xmlns="http://www.w3.org/2000/svg" viewBox="0 0 24 24" stroke-width="1.5" stroke="currentColor" aria-hidden="true" data-slot="icon" fill="none">
  <path stroke-linecap="round" stroke-linejoin="round" d="M18.5 3v5M21 5.5h-5m4.863 4.937a9 9 0 0 1-4.707 9.546 9 9 0 0 1-10.52-1.619 9 9 0 0 1-1.62-10.52 9 9 0 0 1 9.547-4.707m1.619 12.045a4.5 4.5 0 0 1-6.364 0M9.75 9.75c0 .414-.168.75-.375.75S9 10.164 9 9.75 9.168 9 9.375 9s.375.336.375.75Zm-.375 0h.008v.015h-.008Zm5.625 0c0 .414-.168.75-.375.75s-.375-.336-.375-.75.168-.75.375-.75.375.336.375.75Zm-.375 0h.008v.015h-.008z"/>
</svg>
