<svg xmlns="http://www.w3.org/2000/svg" viewBox="0 0 24 24" stroke-width="1.5" stroke="currentColor" aria-hidden="true" data-slot="icon" fill="none">
  <path stroke-linecap="round" stroke-linejoin="round" d="M13.5 12h.001M14 12a.5.5 0 0 1-.5.5.5.5 0 0 1-.5-.5.5.5 0 0 1 .5-.5.5.5 0 0 1 .5.5Zm4 0h.001m.499 0a.5.5 0 0 1-.5.5.5.5 0 0 1-.5-.5.5.5 0 0 1 .5-.5.5.5 0 0 1 .5.5Zm-2.75 2.25h.001m.499 0a.5.5 0 0 1-.5.5.5.5 0 0 1-.5-.5.5.5 0 0 1 .5-.5.5.5 0 0 1 .5.5zm-.5-4.5h.001m.499 0a.5.5 0 0 1-.5.5.5.5 0 0 1-.5-.5.5.5 0 0 1 .5-.5.5.5 0 0 1 .5.5zM7 6.75h10c2.216 0 4 1.784 4 4v2.5c0 2.216-1.784 4-4 4H7c-2.216 0-4-1.784-4-4v-2.5c0-2.216 1.784-4 4-4zM10.5 12H6m2.25-2.25v4.5"/>
</svg>
