<svg xmlns="http://www.w3.org/2000/svg" viewBox="0 0 24 24" stroke-width="1.5" stroke="currentColor" aria-hidden="true" data-slot="icon" fill="none">
  <path stroke-linecap="round" stroke-linejoin="round" d="M19.25 2.25v5m2.5-2.5h-5m-14.5 11 5.159-5.159a2.25 2.25 0 0 1 3.182 0l5.159 5.159m-1.5-1.5 1.409-1.409a2.25 2.25 0 0 1 3.182 0l2.909 2.909m-8-11.25h-10A1.5 1.5 0 0 0 2.25 6v12a1.5 1.5 0 0 0 1.5 1.5h16.5a1.5 1.5 0 0 0 1.5-1.5V9.25m-7.5-1h.007v.008h-.007Zm.375 0a.375.375 0 1 1-.75 0 .375.375 0 0 1 .75 0z"/>
</svg>
