<svg xmlns="http://www.w3.org/2000/svg" viewBox="0 0 24 24" stroke-width="1.5" stroke="currentColor" aria-hidden="true" data-slot="icon" fill="none">
  <path stroke-linecap="round" stroke-linejoin="round" d="M8 17.75h8m3.5-5.5h.75a1.5 1.5 0 0 1 1.5 1.5v2a1.5 1.5 0 0 1-1.5 1.5h-.75m-15-5h-.75a1.5 1.5 0 0 0-1.5 1.5v2a1.5 1.5 0 0 0 1.5 1.5h.75M12 8V6m1.5-1.5A1.5 1.5 0 0 1 12 6a1.5 1.5 0 0 1-1.5-1.5A1.5 1.5 0 0 1 12 3a1.5 1.5 0 0 1 1.5 1.5zm2.75 8.75a1.5 1.5 0 0 1-1.5 1.5 1.5 1.5 0 0 1-1.5-1.5 1.5 1.5 0 0 1 1.5-1.5 1.5 1.5 0 0 1 1.5 1.5zm-5.5 0a1.5 1.5 0 0 1-1.5 1.5 1.5 1.5 0 0 1-1.5-1.5 1.5 1.5 0 0 1 1.5-1.5 1.5 1.5 0 0 1 1.5 1.5zM8.25 8.5h7.5a3.742 3.742 0 0 1 3.75 3.75v5A3.742 3.742 0 0 1 15.75 21h-7.5a3.742 3.742 0 0 1-3.75-3.75v-5A3.742 3.742 0 0 1 8.25 8.5z"/>
</svg>
