<svg xmlns="http://www.w3.org/2000/svg" viewBox="0 0 16 16" fill="currentColor" aria-hidden="true" data-slot="icon">
  <path d="M7.086 1.06A6.984 6.984 0 0 0 3.05 3.048l-.473.473v-1.67a.75.75 0 0 0-.75-.75.75.75 0 0 0-.75.75v3.483a.75.75 0 0 0 .219.53.75.75 0 0 0 .531.22h3.48a.75.75 0 0 0 .75-.75.75.75 0 0 0-.75-.75H3.637l.474-.475a5.49 5.49 0 0 1 6.637-.873 5.497 5.497 0 0 1 2.564 6.188 5.49 5.49 0 0 1-5.31 4.076 5.496 5.496 0 0 1-5.313-4.078.75.75 0 0 0-.918-.532.75.75 0 0 0-.53.92A7.009 7.009 0 0 0 8 15a7.002 7.002 0 0 0 6.76-5.188A7.01 7.01 0 0 0 11.5 1.937a6.992 6.992 0 0 0-4.414-.877Z"/>
</svg>
