<svg xmlns="http://www.w3.org/2000/svg" viewBox="0 0 16 16" fill="currentColor" aria-hidden="true" data-slot="icon">
  <path d="M5.697 11.598a.75.75 0 0 0-1.049.154L3.594 13.17l-.324-.31a.75.75 0 0 0-1.061.021.75.75 0 0 0 .021 1.06l.938.901a.75.75 0 0 0 1.121-.094l1.563-2.1a.75.75 0 0 0-.155-1.05ZM5.141.957a.75.75 0 0 0-.493.295L3.594 2.67l-.324-.31a.75.75 0 0 0-1.061.02.75.75 0 0 0 .021 1.061l.938.9a.75.75 0 0 0 1.121-.093l1.563-2.1a.75.75 0 0 0-.155-1.05.75.75 0 0 0-.556-.141Zm0 5.25a.75.75 0 0 0-.493.295L3.594 7.92l-.324-.31a.75.75 0 0 0-1.061.02.75.75 0 0 0 .021 1.061l.938.9a.75.75 0 0 0 1.121-.093l1.563-2.1a.75.75 0 0 0-.155-1.05.75.75 0 0 0-.556-.141ZM7.75 2c-1 0-1 1.5 0 1.5h5.5c1 0 1-1.5 0-1.5zm0 5.25c-1 0-1 1.5 0 1.5h5.5c1 0 1-1.5 0-1.5zm0 5.25c-1 0-1 1.5 0 1.5h5.5c1 0 1-1.5 0-1.5z"/>
</svg>
