<svg xmlns="http://www.w3.org/2000/svg" viewBox="0 0 16 16" fill="currentColor" aria-hidden="true" data-slot="icon">
  <path d="M14 5.75c0-.82-.68-1.5-1.5-1.5s-1.5.68-1.5 1.5.68 1.5 1.5 1.5 1.5-.68 1.5-1.5zm0 4.5c0-.82-.68-1.5-1.5-1.5s-1.5.68-1.5 1.5.68 1.5 1.5 1.5 1.5-.68 1.5-1.5zm-4.5-4.5c0-.82-.68-1.5-1.5-1.5s-1.5.68-1.5 1.5.68 1.5 1.5 1.5 1.5-.68 1.5-1.5zm0 4.5c0-.82-.68-1.5-1.5-1.5s-1.5.68-1.5 1.5.68 1.5 1.5 1.5 1.5-.68 1.5-1.5zM5 5.75c0-.82-.68-1.5-1.5-1.5S2 4.93 2 5.75s.68 1.5 1.5 1.5S5 6.57 5 5.75Zm0 4.5c0-.82-.68-1.5-1.5-1.5S2 9.43 2 10.25s.68 1.5 1.5 1.5 1.5-.68 1.5-1.5z"/>
</svg>
