<svg xmlns="http://www.w3.org/2000/svg" viewBox="0 0 16 16" fill="currentColor" aria-hidden="true" data-slot="icon">
  <path d="M2.75 2a.75.75 0 0 0-.75.75.75.75 0 0 0 .75.75h10.5a.75.75 0 0 0 .75-.75.75.75 0 0 0-.75-.75ZM5 5a.75.75 0 0 1 .531.219.75.75 0 0 1 0 1.062L3.812 8l1.72 1.719a.75.75 0 0 1 0 1.062.75.75 0 0 1-1.063 0l-2.25-2.25a.75.75 0 0 1 0-1.062l2.25-2.25A.75.75 0 0 1 5 5Zm3 2.25a.75.75 0 0 0-.75.75.75.75 0 0 0 .75.75h5.25A.75.75 0 0 0 14 8a.75.75 0 0 0-.75-.75ZM2.75 12.5a.75.75 0 0 0-.75.75.75.75 0 0 0 .75.75h10.5a.75.75 0 0 0 .75-.75.75.75 0 0 0-.75-.75Z"/>
</svg>
