<svg xmlns="http://www.w3.org/2000/svg" viewBox="0 0 24 24" fill="currentColor" aria-hidden="true" data-slot="icon">
  <path d="M10.726 2.334a9.74 9.74 0 0 1 6.149 1.222 9.749 9.749 0 0 1-4.871 18.193 9.76 9.76 0 0 1-9.418-7.228.75.75 0 0 1 .529-.918.75.75 0 0 1 .92.53 8.247 8.247 0 0 0 7.969 6.117 8.237 8.237 0 0 0 7.964-6.114 8.248 8.248 0 0 0-3.845-9.28 8.237 8.237 0 0 0-9.955 1.308L4.92 7.412h3.207a.75.75 0 0 1 .75.75.75.75 0 0 1-.75.75H3.113a.75.75 0 0 1-.605-.399.75.75 0 0 1-.102-.248.75.75 0 0 1-.043-.103V3.146a.75.75 0 0 1 .75-.75.75.75 0 0 1 .75.75v3.201l1.244-1.244a9.725 9.725 0 0 1 5.62-2.77Z"/>
</svg>
