<svg xmlns="http://www.w3.org/2000/svg" viewBox="0 0 24 24" fill="currentColor" aria-hidden="true" data-slot="icon">
  <path d="M12.253 5.25a.75.75 0 0 0-.75.75v6a.75.75 0 0 0 .75.75h4.5a.75.75 0 0 0 .75-.75.75.75 0 0 0-.75-.75h-3.75V6a.75.75 0 0 0-.75-.75z"/>
  <path d="M10.977 2.336a9.727 9.727 0 0 0-5.619 2.77L4.114 6.35v-3.2a.75.75 0 0 0-.75-.75.75.75 0 0 0-.75.75v5.012a.75.75 0 0 0 .75.75h5.014a.75.75 0 0 0 .75-.75.75.75 0 0 0-.75-.75H5.173l1.246-1.246a8.239 8.239 0 0 1 9.955-1.309 8.246 8.246 0 0 1 3.845 9.28 8.236 8.236 0 0 1-7.964 6.111c-3.737 0-7.001-2.505-7.97-6.115a.75.75 0 0 0-.919-.531.75.75 0 0 0-.53.92 9.76 9.76 0 0 0 9.419 7.226 9.75 9.75 0 0 0 9.414-7.225A9.757 9.757 0 0 0 17.124 3.56a9.736 9.736 0 0 0-6.147-1.223Z"/>
</svg>
