<svg xmlns="http://www.w3.org/2000/svg" viewBox="0 0 24 24" fill="currentColor" aria-hidden="true" data-slot="icon">
  <path d="M7.135 3.76a.75.75 0 0 0-.49.299L4.969 6.357l-.694-.68a.75.75 0 0 0-1.06.012.75.75 0 0 0 .01 1.061l1.312 1.285a.75.75 0 0 0 1.131-.094l2.187-3a.75.75 0 0 0-.164-1.046.75.75 0 0 0-.556-.135ZM10 5.25a.75.75 0 0 0-.75.75.75.75 0 0 0 .75.75h10.25A.75.75 0 0 0 21 6a.75.75 0 0 0-.75-.75ZM3.75 9.5a.75.75 0 0 0-.75.75v3.5a.75.75 0 0 0 .75.75h3.5a.75.75 0 0 0 .75-.75v-3.5a.75.75 0 0 0-.75-.75ZM4.5 11h2v2h-2zm5.5.25a.75.75 0 0 0-.75.75.75.75 0 0 0 .75.75h10.25A.75.75 0 0 0 21 12a.75.75 0 0 0-.75-.75ZM3.75 15.5a.75.75 0 0 0-.75.75v3.5a.75.75 0 0 0 .75.75h3.5a.75.75 0 0 0 .75-.75v-3.5a.75.75 0 0 0-.75-.75ZM4.5 17h2v2h-2zm5.5.25a.75.75 0 0 0-.75.75.75.75 0 0 0 .75.75h10.25A.75.75 0 0 0 21 18a.75.75 0 0 0-.75-.75Z"/>
</svg>
