<svg xmlns="http://www.w3.org/2000/svg" viewBox="0 0 24 24" fill="currentColor" aria-hidden="true" data-slot="icon">
  <path d="M10.14 2.429a9.751 9.751 0 0 0-3.592 1.488.75.75 0 0 0-.201 1.041.75.75 0 0 0 1.04.201 8.247 8.247 0 0 1 3.04-1.257.75.75 0 0 0 .594-.88.75.75 0 0 0-.881-.593zm3.718 0a.75.75 0 0 0-.879.594.75.75 0 0 0 .594.879 8.249 8.249 0 0 1 3.04 1.257.75.75 0 0 0 1.04-.203.75.75 0 0 0-.203-1.04 9.75 9.75 0 0 0-3.592-1.487ZM4.396 6.232a.75.75 0 0 0-.479.316 9.75 9.75 0 0 0-1.488 3.592.75.75 0 0 0 .593.879.75.75 0 0 0 .88-.592 8.247 8.247 0 0 1 1.257-3.04.75.75 0 0 0-.201-1.04.75.75 0 0 0-.562-.115Zm15.208 0a.75.75 0 0 0-.562.113.75.75 0 0 0-.203 1.04 8.25 8.25 0 0 1 1.26 3.04.75.75 0 0 0 .879.594.75.75 0 0 0 .593-.88 9.75 9.75 0 0 0-1.488-3.591.75.75 0 0 0-.479-.316Zm-16.582 6.75a.75.75 0 0 0-.593.879 9.754 9.754 0 0 0 1.488 3.591.75.75 0 0 0 1.041.202.75.75 0 0 0 .201-1.042 8.24 8.24 0 0 1-1.258-3.037.75.75 0 0 0-.879-.593zm17.956 0a.75.75 0 0 0-.88.591 8.25 8.25 0 0 1-1.26 3.04.75.75 0 0 0 .204 1.04.75.75 0 0 0 1.041-.2 9.75 9.75 0 0 0 1.488-3.592.75.75 0 0 0-.593-.88zM6.825 18.726a.75.75 0 0 0-.478.316.75.75 0 0 0 .203 1.041 9.75 9.75 0 0 0 3.592 1.488.75.75 0 0 0 .879-.593.75.75 0 0 0-.594-.88 8.246 8.246 0 0 1-3.04-1.257.75.75 0 0 0-.562-.115zm9.787.115a8.247 8.247 0 0 1-3.039 1.258.75.75 0 0 0-.594.879.75.75 0 0 0 .88.593 9.751 9.751 0 0 0 3.591-1.488.75.75 0 0 0 .203-1.04.75.75 0 0 0-1.04-.202z"/>
</svg>
