<svg xmlns="http://www.w3.org/2000/svg" viewBox="0 0 24 24" fill="currentColor" aria-hidden="true" data-slot="icon">
  <path d="M19 8.75a.75.75 0 1 0 0 1.5.75.75 0 0 0 0-1.5zm-1-3.5a.75.75 0 1 0 0 1.5.75.75 0 0 0 0-1.5zm-2.5 2.5a.75.75 0 1 0 0 1.5.75.75 0 0 0 0-1.5zm-1-3.5a.75.75 0 1 0 0 1.5.75.75 0 0 0 0-1.5zm-2.932-1.99C6.39 2.486 2.25 6.769 2.25 12c0 5.376 4.374 9.75 9.75 9.75 5.231 0 9.514-4.14 9.74-9.318.032-.694-.815-1.054-1.293-.551-.365.382-.873.62-1.447.62-.89 0-1.635-.576-1.898-1.368a.75.75 0 0 0-1.092-.41c-.3.176-.64.277-1.01.277-1.113 0-2-.886-2-2 0-.372.1-.714.275-1.012a.75.75 0 0 0-.408-1.091A1.996 1.996 0 0 1 11.5 5c0-.574.237-1.082.62-1.447.502-.478.142-1.325-.552-1.293ZM9.75 6.75a.75.75 0 1 1 0 1.5.75.75 0 0 1 0-1.5zm-3.5 1.5c.295 0 .6.096.846.315.246.218.404.57.404.935 0 .365-.158.717-.404.936-.246.218-.55.314-.846.314-.295 0-.6-.096-.846-.314A1.273 1.273 0 0 1 5 9.5c0-.364.158-.717.404-.935.246-.22.55-.315.846-.315Zm4.5 4a.75.75 0 1 1 0 1.5.75.75 0 0 1 0-1.5zm-5 1a.75.75 0 1 1 0 1.5.75.75 0 0 1 0-1.5zm10.154.315c.295 0 .6.095.846.314s.404.571.404.936c0 .364-.158.716-.404.935-.246.219-.55.315-.846.315-.295 0-.6-.096-.845-.315a1.273 1.273 0 0 1-.405-.935c0-.365.159-.717.405-.936.246-.219.55-.314.845-.314zM9.75 15.75c.295 0 .6.096.846.315.246.218.404.57.404.935 0 .365-.158.717-.404.936-.246.218-.55.314-.846.314-.295 0-.6-.096-.846-.314A1.273 1.273 0 0 1 8.5 17c0-.364.158-.717.404-.935.246-.22.55-.315.846-.315Zm4.75 1.75a.75.75 0 1 1 0 1.5.75.75 0 0 1 0-1.5z"/>
</svg>
