<svg xmlns="http://www.w3.org/2000/svg" viewBox="0 0 24 24" fill="currentColor" aria-hidden="true" data-slot="icon">
  <path d="M2.578 8.174a.327.327 0 0 0-.328.326v8c0 .267.143.514.373.648l8.04 4.69a.391.391 0 0 0 .587-.338v-7.75a.991.991 0 0 0-.492-.855L2.742 8.217a.327.327 0 0 0-.164-.043Zm2.176 2.972a.964.964 0 0 1 .389.067c.168.067.27.149.367.234.192.171.343.372.48.61.138.238.236.466.287.718.026.127.046.259.02.438a.89.89 0 0 1-.422.642.89.89 0 0 1-.768.045 1.172 1.172 0 0 1-.367-.236 2.368 2.368 0 0 1-.48-.607 2.377 2.377 0 0 1-.287-.721 1.183 1.183 0 0 1-.02-.438.89.89 0 0 1 .422-.642.818.818 0 0 1 .379-.11Zm3.25 1.702a.956.956 0 0 1 .389.064c.168.067.27.151.367.236.192.171.343.37.48.608.138.238.236.468.287.72.026.127.046.259.02.438a.89.89 0 0 1-.422.643c-.293.169-.6.11-.768.043a1.17 1.17 0 0 1-.367-.235 2.378 2.378 0 0 1-.48-.61 2.366 2.366 0 0 1-.287-.718 1.183 1.183 0 0 1-.02-.437.89.89 0 0 1 .422-.643.823.823 0 0 1 .379-.11Zm-3.25 1.5a.956.956 0 0 1 .389.064c.168.067.27.151.367.236.192.171.343.37.48.608.138.238.236.468.287.72.026.127.046.259.02.438a.89.89 0 0 1-.422.643c-.293.169-.6.11-.768.043a1.17 1.17 0 0 1-.367-.235 2.378 2.378 0 0 1-.48-.61 2.366 2.366 0 0 1-.287-.718 1.183 1.183 0 0 1-.02-.437.89.89 0 0 1 .422-.643.823.823 0 0 1 .379-.11Zm3.25 1.75a.956.956 0 0 1 .389.064c.168.067.27.151.367.236.192.171.343.37.48.608.138.238.236.468.287.72.026.127.046.259.02.438a.89.89 0 0 1-.422.643c-.293.169-.6.11-.768.043a1.17 1.17 0 0 1-.367-.235 2.378 2.378 0 0 1-.48-.61 2.366 2.366 0 0 1-.287-.718 1.183 1.183 0 0 1-.02-.437.89.89 0 0 1 .422-.643.823.823 0 0 1 .379-.11Zm13.443-7.924a.327.327 0 0 0-.19.043l-8.015 4.678a.991.991 0 0 0-.492.855v7.799a.363.363 0 0 0 .547.312l8.08-4.713a.752.752 0 0 0 .373-.648v-8a.327.327 0 0 0-.303-.326Zm-5.502 4.707a.83.83 0 0 1 .43.111.89.89 0 0 1 .422.643c.026.179.006.311-.02.437-.051.253-.15.481-.287.719a2.378 2.378 0 0 1-.48.61 1.17 1.17 0 0 1-.367.234.889.889 0 0 1-.768-.043.89.89 0 0 1-.422-.643 1.183 1.183 0 0 1 .02-.437c.051-.253.15-.483.287-.721.137-.238.288-.437.48-.607.097-.086.2-.17.367-.237a.96.96 0 0 1 .338-.066zm3.25 1.5a.83.83 0 0 1 .43.111.89.89 0 0 1 .422.643c.026.179.006.311-.02.437-.051.253-.15.481-.287.719a2.378 2.378 0 0 1-.48.61 1.17 1.17 0 0 1-.367.234.889.889 0 0 1-.768-.043.89.89 0 0 1-.422-.643 1.183 1.183 0 0 1 .02-.437c.051-.253.15-.483.287-.721.137-.238.288-.437.48-.607.097-.086.2-.17.367-.237a.96.96 0 0 1 .338-.066zM12 1.5c-.13 0-.26.033-.377.102L3.533 6.32a.36.36 0 0 0 0 .623l7.74 4.516a1.44 1.44 0 0 0 1.454 0l7.765-4.531a.343.343 0 0 0 0-.592l-8.115-4.734A.745.745 0 0 0 12 1.5Zm-.094 4.078h.102c.274 0 .523.03.767.111.123.041.247.091.39.204a.886.886 0 0 1 .343.685.886.886 0 0 1-.344.686 1.19 1.19 0 0 1-.389.203 2.376 2.376 0 0 1-.767.111c-.275 0-.523-.03-.768-.111a1.19 1.19 0 0 1-.388-.203.886.886 0 0 1-.344-.686c0-.338.201-.573.344-.685a1.19 1.19 0 0 1 .388-.204 2.28 2.28 0 0 1 .666-.11z"/>
</svg>
