<svg xmlns="http://www.w3.org/2000/svg" viewBox="0 0 24 24" fill="currentColor" aria-hidden="true" data-slot="icon">
  <path d="M19.5 18c0-.82-.68-1.5-1.5-1.5s-1.5.68-1.5 1.5.68 1.5 1.5 1.5 1.5-.68 1.5-1.5zm-6 0c0-.82-.68-1.5-1.5-1.5s-1.5.68-1.5 1.5.68 1.5 1.5 1.5 1.5-.68 1.5-1.5zm-6 0c0-.82-.68-1.5-1.5-1.5s-1.5.68-1.5 1.5.68 1.5 1.5 1.5 1.5-.68 1.5-1.5zm12-12c0-.82-.68-1.5-1.5-1.5s-1.5.68-1.5 1.5.68 1.5 1.5 1.5 1.5-.68 1.5-1.5zm0 6c0-.82-.68-1.5-1.5-1.5s-1.5.68-1.5 1.5.68 1.5 1.5 1.5 1.5-.68 1.5-1.5zm-6-6c0-.82-.68-1.5-1.5-1.5s-1.5.68-1.5 1.5.68 1.5 1.5 1.5 1.5-.68 1.5-1.5zm0 6c0-.82-.68-1.5-1.5-1.5s-1.5.68-1.5 1.5.68 1.5 1.5 1.5 1.5-.68 1.5-1.5zm-6-6c0-.82-.68-1.5-1.5-1.5S4.5 5.18 4.5 6 5.18 7.5 6 7.5 7.5 6.82 7.5 6Zm0 6c0-.82-.68-1.5-1.5-1.5s-1.5.68-1.5 1.5.68 1.5 1.5 1.5 1.5-.68 1.5-1.5z"/>
</svg>
