<svg xmlns="http://www.w3.org/2000/svg" viewBox="0 0 24 24" fill="currentColor" aria-hidden="true" data-slot="icon">
  <path d="M9 4.5c-.82 0-1.5.68-1.5 1.5S8.18 7.5 9 7.5s1.5-.68 1.5-1.5S9.82 4.5 9 4.5Zm6 0c-.82 0-1.5.68-1.5 1.5s.68 1.5 1.5 1.5 1.5-.68 1.5-1.5-.68-1.5-1.5-1.5zm-6 6c-.82 0-1.5.68-1.5 1.5s.68 1.5 1.5 1.5 1.5-.68 1.5-1.5-.68-1.5-1.5-1.5zm6 0c-.82 0-1.5.68-1.5 1.5s.68 1.5 1.5 1.5 1.5-.68 1.5-1.5-.68-1.5-1.5-1.5zm-6 6c-.82 0-1.5.68-1.5 1.5s.68 1.5 1.5 1.5 1.5-.68 1.5-1.5-.68-1.5-1.5-1.5zm6 0c-.82 0-1.5.68-1.5 1.5s.68 1.5 1.5 1.5 1.5-.68 1.5-1.5-.68-1.5-1.5-1.5z"/>
</svg>
