<svg xmlns="http://www.w3.org/2000/svg" viewBox="0 0 24 24" fill="currentColor" aria-hidden="true" data-slot="icon">
  <path d="M5.482 8.662 4.35 7.53a8.412 8.412 0 0 0-.541 5.926c-.08.072-.16.146-.235.227-.84.899-1.055 2.289-.564 4.12.49 1.833 1.372 2.929 2.549 3.288 1.176.36 2.39.048 3.685-.299a.75.75 0 0 0 .531-.918l-.97-3.623-.971-3.621a.75.75 0 0 0-.686-.555.75.75 0 0 0-.232.024c-.618.165-1.216.329-1.764.552a6.892 6.892 0 0 1 .33-3.988ZM18.012 21.191l-3.266-3.265-.521 1.947a.75.75 0 0 0 .53.918c1.14.305 2.214.582 3.257.4zM7.324 4.145l1.09 1.09a7.037 7.037 0 0 1 7.742.372 6.92 6.92 0 0 1 2.692 7.043c-.548-.223-1.146-.387-1.764-.552a.75.75 0 0 0-.232-.024.75.75 0 0 0-.686.555l-.076.281 4.898 4.899.002-.006c.491-1.832.275-3.222-.564-4.121a3.519 3.519 0 0 0-.235-.227 8.435 8.435 0 0 0-3.148-9.059A8.523 8.523 0 0 0 12 2.75c-1.63 0-3.259.466-4.676 1.395Z"/>
  <path d="M3.511 2.451a.75.75 0 0 0-1.06 1.06l18 18a.75.75 0 1 0 1.06-1.06z"/>
</svg>
