<svg xmlns="http://www.w3.org/2000/svg" viewBox="0 0 24 24" fill="currentColor" aria-hidden="true" data-slot="icon">
  <path d="M3.752 5.25a.75.75 0 0 0-.75.75.75.75 0 0 0 .75.75H20.25A.75.75 0 0 0 21 6a.75.75 0 0 0-.75-.75Zm2.5 3.5a.75.75 0 0 0-.532.219l-2.5 2.5a.75.75 0 0 0 0 1.062l2.5 2.5a.75.75 0 0 0 1.063 0 .75.75 0 0 0 0-1.062L4.814 12l1.969-1.969a.75.75 0 0 0 0-1.062.75.75 0 0 0-.532-.219Zm2.75 2.5a.75.75 0 0 0-.75.75.75.75 0 0 0 .75.75H20.25A.75.75 0 0 0 21 12a.75.75 0 0 0-.75-.75Zm-5.25 6a.75.75 0 0 0-.75.75.75.75 0 0 0 .75.75H20.25A.75.75 0 0 0 21 18a.75.75 0 0 0-.75-.75Z"/>
</svg>
