<svg xmlns="http://www.w3.org/2000/svg" viewBox="0 0 24 24" fill="currentColor" aria-hidden="true" data-slot="icon">
  <path d="M5.25 7c-1.648 0-3 1.352-3 3v4c0 1.648 1.352 3 3 3h13.5c1.648 0 3-1.352 3-3v-4c0-1.648-1.352-3-3-3H5.25zm1.5 2.75a.75.75 0 0 1 .75.75v.2l.174-.1a.75.75 0 0 1 1.025.275.75.75 0 0 1-.275 1.025l-.172.1.172.1a.75.75 0 0 1 .275 1.025.75.75 0 0 1-1.025.275l-.174-.1v.2a.75.75 0 0 1-.75.75.75.75 0 0 1-.75-.75v-.2l-.174.1a.75.75 0 0 1-1.025-.275.75.75 0 0 1 .275-1.025l.172-.1-.172-.1a.75.75 0 0 1-.275-1.025.75.75 0 0 1 1.025-.275l.174.1v-.2a.75.75 0 0 1 .75-.75zm5.25 0a.75.75 0 0 1 .75.75v.2l.174-.1a.75.75 0 0 1 1.025.275.75.75 0 0 1-.275 1.025l-.172.1.172.1a.75.75 0 0 1 .275 1.025.75.75 0 0 1-1.025.275l-.174-.1v.2a.75.75 0 0 1-.75.75.75.75 0 0 1-.75-.75v-.2l-.174.1a.75.75 0 0 1-1.025-.275.75.75 0 0 1 .275-1.025l.172-.1-.172-.1a.75.75 0 0 1-.275-1.025.75.75 0 0 1 1.025-.275l.174.1v-.2a.75.75 0 0 1 .75-.75zm5.299 0a.75.75 0 0 1 .75.75v.2l.174-.1a.75.75 0 0 1 1.025.275.75.75 0 0 1-.275 1.025l-.172.1.172.1a.75.75 0 0 1 .275 1.025.75.75 0 0 1-1.025.275l-.174-.1v.2a.75.75 0 0 1-.75.75.75.75 0 0 1-.75-.75v-.2l-.174.1a.75.75 0 0 1-1.025-.275.75.75 0 0 1 .275-1.025l.172-.1-.172-.1a.75.75 0 0 1-.275-1.025.75.75 0 0 1 1.025-.275l.174.1v-.2a.75.75 0 0 1 .75-.75z"/>
</svg>
