<svg xmlns="http://www.w3.org/2000/svg" viewBox="0 0 20 20" fill="currentColor" aria-hidden="true" data-slot="icon">
  <path d="M5.637 14.235a.75.75 0 0 0-.49.296L3.78 16.387l-.508-.492a.75.75 0 0 0-1.06.015.75.75 0 0 0 .014 1.06l1.125 1.093a.75.75 0 0 0 1.127-.094l1.875-2.549a.75.75 0 0 0-.16-1.049.75.75 0 0 0-.557-.136ZM6.193 1.87a.75.75 0 0 0-1.047.16L3.781 3.887l-.508-.493a.75.75 0 0 0-1.06.016.75.75 0 0 0 .014 1.06l1.125 1.092a.75.75 0 0 0 1.127-.093l1.875-2.55a.75.75 0 0 0-.16-1.048Zm0 6.25a.75.75 0 0 0-1.047.16l-1.365 1.856-.508-.492a.75.75 0 0 0-1.06.015.75.75 0 0 0 .014 1.06l1.125 1.092a.75.75 0 0 0 1.127-.093l1.875-2.55a.75.75 0 0 0-.16-1.048ZM8.75 3a.75.75 0 0 0-.75.75.75.75 0 0 0 .75.75h8.5a.75.75 0 0 0 .75-.75.75.75 0 0 0-.75-.75zm0 6.25A.75.75 0 0 0 8 10a.75.75 0 0 0 .75.75h8.5A.75.75 0 0 0 18 10a.75.75 0 0 0-.75-.75Zm0 6.25a.75.75 0 0 0-.75.75.75.75 0 0 0 .75.75h8.5a.75.75 0 0 0 .75-.75.75.75 0 0 0-.75-.75z"/>
</svg>
