<svg xmlns="http://www.w3.org/2000/svg" viewBox="0 0 20 20" fill="currentColor" aria-hidden="true" data-slot="icon">
  <path d="M4.5 17a1.5 1.5 0 1 0 0-3 1.5 1.5 0 0 0 0 3Zm7-1.5a1.5 1.5 0 1 1-3 0 1.5 1.5 0 0 1 3 0zm5.5 0a1.5 1.5 0 1 1-3 0 1.5 1.5 0 0 1 3 0ZM4.5 6a1.5 1.5 0 1 0 0-3 1.5 1.5 0 0 0 0 3Zm7-1.5a1.5 1.5 0 1 1-3 0 1.5 1.5 0 0 1 3 0zm5.5 0a1.5 1.5 0 1 1-3 0 1.5 1.5 0 0 1 3 0Zm-12.5 7a1.5 1.5 0 1 0 0-3 1.5 1.5 0 0 0 0 3zm7-1.5a1.5 1.5 0 1 1-3 0 1.5 1.5 0 0 1 3 0zm5.5 0a1.5 1.5 0 1 1-3 0 1.5 1.5 0 0 1 3 0Z"/>
</svg>
