<svg xmlns="http://www.w3.org/2000/svg" viewBox="0 0 20 20" fill="currentColor" aria-hidden="true" data-slot="icon">
  <path d="M2.75 3a.75.75 0 0 0-.75.75.75.75 0 0 0 .75.75h14.5a.75.75 0 0 0 .75-.75.75.75 0 0 0-.75-.75ZM5.5 6.5a.75.75 0 0 1 .531.219.75.75 0 0 1 0 1.062L3.812 10l2.22 2.219a.75.75 0 0 1 0 1.062.75.75 0 0 1-1.063 0l-2.75-2.75a.75.75 0 0 1 0-1.062l2.75-2.75A.75.75 0 0 1 5.5 6.5Zm3 2.75a.75.75 0 0 0-.75.75.75.75 0 0 0 .75.75h8.75A.75.75 0 0 0 18 10a.75.75 0 0 0-.75-.75ZM2.75 15.5a.75.75 0 0 0-.75.75.75.75 0 0 0 .75.75h14.5a.75.75 0 0 0 .75-.75.75.75 0 0 0-.75-.75Z"/>
</svg>
