<svg xmlns="http://www.w3.org/2000/svg" viewBox="0 0 20 20" fill="currentColor" aria-hidden="true" data-slot="icon">
  <path d="M3.25 3A2.25 2.25 0 0 0 1 5.25v9.5A2.25 2.25 0 0 0 3.25 17h13.5A2.25 2.25 0 0 0 19 14.75V6.111a2.25 2.25 0 0 1-.75.139 2.25 2.25 0 1 1-4.5 0A2.25 2.25 0 0 1 11.5 4a2.25 2.25 0 0 1 .246-1zM11 6a1 1 0 1 1 0 2 1 1 0 0 1 0-2ZM6 7.871a.75.75 0 0 1 .531.22l5.188 5.19a.752.752 0 0 0 1.062-1.062l-.47-.469 1.908-1.908a.752.752 0 0 1 1.062 0L17.5 12.06v2.689a.75.75 0 0 1-.75.75H3.25a.75.75 0 0 1-.75-.75v-3.69l2.969-2.968A.75.75 0 0 1 6 7.872ZM16 1a.75.75 0 0 0-.75.75v1.5h-1.5a.75.75 0 1 0 0 1.5h1.5v1.5a.75.75 0 1 0 1.5 0v-1.5h1.5a.75.75 0 1 0 0-1.5h-1.5v-1.5A.75.75 0 0 0 16 1Z"/>
</svg>
